<mxfile host="app.diagrams.net" agent="Mozilla/5.0 (Windows NT 10.0; Win64; x64) AppleWebKit/537.36 (KHTML, like Gecko) Chrome/128.0.0.0 Safari/537.36 Edg/128.0.0.0" version="24.7.16">
  <diagram name="Page-1" id="e3K1C8kqqtnIpafieiGO">
    <mxGraphModel dx="2572" dy="951" grid="1" gridSize="10" guides="1" tooltips="1" connect="1" arrows="1" fold="1" page="1" pageScale="1" pageWidth="850" pageHeight="1100" math="0" shadow="0">
      <root>
        <mxCell id="0" />
        <mxCell id="1" parent="0" />
        <mxCell id="Jq515evewrRoZrL4Z5Ga-43" value="" style="rounded=0;whiteSpace=wrap;html=1;fillColor=none;dashed=1;" vertex="1" parent="1">
          <mxGeometry x="360" y="440" width="630" height="350" as="geometry" />
        </mxCell>
        <mxCell id="Jq515evewrRoZrL4Z5Ga-23" style="edgeStyle=orthogonalEdgeStyle;rounded=0;orthogonalLoop=1;jettySize=auto;html=1;entryX=-0.003;entryY=0.443;entryDx=0;entryDy=0;entryPerimeter=0;startArrow=classic;startFill=1;" edge="1" parent="1" target="Jq515evewrRoZrL4Z5Ga-81">
          <mxGeometry relative="1" as="geometry">
            <mxPoint x="-560" y="670" as="sourcePoint" />
            <mxPoint x="-54.00000000000019" y="768.5000000000001" as="targetPoint" />
            <Array as="points">
              <mxPoint x="-54" y="670" />
            </Array>
          </mxGeometry>
        </mxCell>
        <mxCell id="Jq515evewrRoZrL4Z5Ga-25" value="Allow 3rd party service reads Repo Documents" style="edgeLabel;html=1;align=center;verticalAlign=middle;resizable=0;points=[];" vertex="1" connectable="0" parent="Jq515evewrRoZrL4Z5Ga-23">
          <mxGeometry x="0.1084" y="2" relative="1" as="geometry">
            <mxPoint x="-8" y="2" as="offset" />
          </mxGeometry>
        </mxCell>
        <mxCell id="Jq515evewrRoZrL4Z5Ga-27" style="edgeStyle=orthogonalEdgeStyle;rounded=0;orthogonalLoop=1;jettySize=auto;html=1;entryX=-0.015;entryY=0.48;entryDx=0;entryDy=0;entryPerimeter=0;startArrow=classic;startFill=1;" edge="1" parent="1" target="Jq515evewrRoZrL4Z5Ga-81">
          <mxGeometry relative="1" as="geometry">
            <mxPoint x="-560" y="690" as="sourcePoint" />
            <mxPoint x="-63.50999999999998" y="816.3400000000001" as="targetPoint" />
            <Array as="points">
              <mxPoint x="-64" y="690" />
            </Array>
          </mxGeometry>
        </mxCell>
        <mxCell id="Jq515evewrRoZrL4Z5Ga-28" value="Enable chatbot for that provided Repo" style="edgeLabel;html=1;align=center;verticalAlign=middle;resizable=0;points=[];" vertex="1" connectable="0" parent="Jq515evewrRoZrL4Z5Ga-27">
          <mxGeometry x="0.2649" relative="1" as="geometry">
            <mxPoint x="-67" as="offset" />
          </mxGeometry>
        </mxCell>
        <mxCell id="Jq515evewrRoZrL4Z5Ga-2" value="Client" style="shape=umlActor;verticalLabelPosition=bottom;verticalAlign=top;html=1;outlineConnect=0;" vertex="1" parent="1">
          <mxGeometry x="-591" y="636.5" width="30" height="60" as="geometry" />
        </mxCell>
        <mxCell id="Jq515evewrRoZrL4Z5Ga-3" value="Chatbot Provider" style="rounded=0;whiteSpace=wrap;html=1;" vertex="1" parent="1">
          <mxGeometry x="570" y="360" width="120" height="60" as="geometry" />
        </mxCell>
        <mxCell id="Jq515evewrRoZrL4Z5Ga-4" value="Vector Store" style="shape=cylinder3;whiteSpace=wrap;html=1;boundedLbl=1;backgroundOutline=1;size=15;" vertex="1" parent="1">
          <mxGeometry x="600" y="230" width="60" height="80" as="geometry" />
        </mxCell>
        <mxCell id="Jq515evewrRoZrL4Z5Ga-42" style="edgeStyle=orthogonalEdgeStyle;rounded=0;orthogonalLoop=1;jettySize=auto;html=1;exitX=0;exitY=0.5;exitDx=0;exitDy=0;entryX=1;entryY=0.5;entryDx=0;entryDy=0;" edge="1" parent="1" source="Jq515evewrRoZrL4Z5Ga-11" target="Jq515evewrRoZrL4Z5Ga-3">
          <mxGeometry relative="1" as="geometry" />
        </mxCell>
        <mxCell id="Jq515evewrRoZrL4Z5Ga-11" value="Fetching Service" style="rounded=0;whiteSpace=wrap;html=1;" vertex="1" parent="1">
          <mxGeometry x="851" y="530" width="120" height="60" as="geometry" />
        </mxCell>
        <mxCell id="Jq515evewrRoZrL4Z5Ga-13" value="Repo Service" style="ellipse;shape=cloud;whiteSpace=wrap;html=1;" vertex="1" parent="1">
          <mxGeometry x="845" y="310" width="120" height="80" as="geometry" />
        </mxCell>
        <mxCell id="Jq515evewrRoZrL4Z5Ga-15" style="edgeStyle=orthogonalEdgeStyle;rounded=0;orthogonalLoop=1;jettySize=auto;html=1;exitX=0.5;exitY=0;exitDx=0;exitDy=0;entryX=0.55;entryY=0.95;entryDx=0;entryDy=0;entryPerimeter=0;startArrow=classic;startFill=1;" edge="1" parent="1" source="Jq515evewrRoZrL4Z5Ga-11" target="Jq515evewrRoZrL4Z5Ga-13">
          <mxGeometry relative="1" as="geometry" />
        </mxCell>
        <mxCell id="Jq515evewrRoZrL4Z5Ga-18" value="" style="endArrow=classic;startArrow=classic;html=1;rounded=0;entryX=0.5;entryY=1;entryDx=0;entryDy=0;entryPerimeter=0;exitX=0.5;exitY=0;exitDx=0;exitDy=0;" edge="1" parent="1" source="Jq515evewrRoZrL4Z5Ga-3" target="Jq515evewrRoZrL4Z5Ga-4">
          <mxGeometry width="50" height="50" relative="1" as="geometry">
            <mxPoint x="525" y="600" as="sourcePoint" />
            <mxPoint x="575" y="550" as="targetPoint" />
          </mxGeometry>
        </mxCell>
        <mxCell id="Jq515evewrRoZrL4Z5Ga-19" value="" style="endArrow=classic;startArrow=classic;html=1;rounded=0;entryX=0.004;entryY=0.403;entryDx=0;entryDy=0;entryPerimeter=0;" edge="1" parent="1" target="Jq515evewrRoZrL4Z5Ga-81">
          <mxGeometry width="50" height="50" relative="1" as="geometry">
            <mxPoint x="-560" y="650" as="sourcePoint" />
            <mxPoint x="-381" y="591.5" as="targetPoint" />
          </mxGeometry>
        </mxCell>
        <mxCell id="Jq515evewrRoZrL4Z5Ga-20" value="User gives a prompt, Bot replies an answer" style="edgeLabel;html=1;align=center;verticalAlign=middle;resizable=0;points=[];" vertex="1" connectable="0" parent="Jq515evewrRoZrL4Z5Ga-19">
          <mxGeometry x="0.019" y="-1" relative="1" as="geometry">
            <mxPoint x="4" as="offset" />
          </mxGeometry>
        </mxCell>
        <mxCell id="Jq515evewrRoZrL4Z5Ga-38" style="edgeStyle=orthogonalEdgeStyle;rounded=0;orthogonalLoop=1;jettySize=auto;html=1;exitX=0.5;exitY=0;exitDx=0;exitDy=0;entryX=0.5;entryY=1;entryDx=0;entryDy=0;" edge="1" parent="1" source="Jq515evewrRoZrL4Z5Ga-22" target="Jq515evewrRoZrL4Z5Ga-32">
          <mxGeometry relative="1" as="geometry" />
        </mxCell>
        <mxCell id="Jq515evewrRoZrL4Z5Ga-39" style="edgeStyle=orthogonalEdgeStyle;rounded=0;orthogonalLoop=1;jettySize=auto;html=1;exitX=1;exitY=0.5;exitDx=0;exitDy=0;entryX=0.5;entryY=1;entryDx=0;entryDy=0;" edge="1" parent="1" source="Jq515evewrRoZrL4Z5Ga-22" target="Jq515evewrRoZrL4Z5Ga-11">
          <mxGeometry relative="1" as="geometry" />
        </mxCell>
        <mxCell id="Jq515evewrRoZrL4Z5Ga-22" value="Subscription Service" style="rounded=0;whiteSpace=wrap;html=1;" vertex="1" parent="1">
          <mxGeometry x="570" y="690" width="120" height="60" as="geometry" />
        </mxCell>
        <mxCell id="Jq515evewrRoZrL4Z5Ga-37" style="edgeStyle=orthogonalEdgeStyle;rounded=0;orthogonalLoop=1;jettySize=auto;html=1;exitX=0.5;exitY=1;exitDx=0;exitDy=0;entryX=0;entryY=0.5;entryDx=0;entryDy=0;startArrow=classic;startFill=1;" edge="1" parent="1" source="Jq515evewrRoZrL4Z5Ga-31" target="Jq515evewrRoZrL4Z5Ga-22">
          <mxGeometry relative="1" as="geometry" />
        </mxCell>
        <mxCell id="Jq515evewrRoZrL4Z5Ga-31" value="APIs" style="rounded=0;whiteSpace=wrap;html=1;" vertex="1" parent="1">
          <mxGeometry x="380" y="530" width="120" height="60" as="geometry" />
        </mxCell>
        <mxCell id="Jq515evewrRoZrL4Z5Ga-32" value="Chatbot Service" style="rounded=0;whiteSpace=wrap;html=1;" vertex="1" parent="1">
          <mxGeometry x="570" y="530" width="120" height="60" as="geometry" />
        </mxCell>
        <mxCell id="Jq515evewrRoZrL4Z5Ga-34" value="" style="endArrow=classic;startArrow=classic;html=1;rounded=0;entryX=0.5;entryY=1;entryDx=0;entryDy=0;exitX=0.5;exitY=0;exitDx=0;exitDy=0;" edge="1" parent="1" source="Jq515evewrRoZrL4Z5Ga-32" target="Jq515evewrRoZrL4Z5Ga-3">
          <mxGeometry width="50" height="50" relative="1" as="geometry">
            <mxPoint x="430" y="500" as="sourcePoint" />
            <mxPoint x="480" y="450" as="targetPoint" />
          </mxGeometry>
        </mxCell>
        <mxCell id="Jq515evewrRoZrL4Z5Ga-35" value="" style="endArrow=classic;startArrow=classic;html=1;rounded=0;entryX=1;entryY=0.5;entryDx=0;entryDy=0;exitX=0;exitY=0.5;exitDx=0;exitDy=0;" edge="1" parent="1" source="Jq515evewrRoZrL4Z5Ga-32" target="Jq515evewrRoZrL4Z5Ga-31">
          <mxGeometry width="50" height="50" relative="1" as="geometry">
            <mxPoint x="640" y="540" as="sourcePoint" />
            <mxPoint x="640" y="430" as="targetPoint" />
          </mxGeometry>
        </mxCell>
        <mxCell id="Jq515evewrRoZrL4Z5Ga-44" value="DB" style="shape=cylinder3;whiteSpace=wrap;html=1;boundedLbl=1;backgroundOutline=1;size=15;" vertex="1" parent="1">
          <mxGeometry x="720" y="600" width="101" height="90" as="geometry" />
        </mxCell>
        <mxCell id="Jq515evewrRoZrL4Z5Ga-45" style="edgeStyle=orthogonalEdgeStyle;rounded=0;orthogonalLoop=1;jettySize=auto;html=1;exitX=1;exitY=0;exitDx=0;exitDy=0;entryX=0;entryY=1;entryDx=0;entryDy=-15;entryPerimeter=0;" edge="1" parent="1" source="Jq515evewrRoZrL4Z5Ga-22" target="Jq515evewrRoZrL4Z5Ga-44">
          <mxGeometry relative="1" as="geometry" />
        </mxCell>
        <mxCell id="Jq515evewrRoZrL4Z5Ga-46" style="edgeStyle=orthogonalEdgeStyle;rounded=0;orthogonalLoop=1;jettySize=auto;html=1;exitX=0;exitY=1;exitDx=0;exitDy=0;entryX=1;entryY=0;entryDx=0;entryDy=15;entryPerimeter=0;" edge="1" parent="1" source="Jq515evewrRoZrL4Z5Ga-11" target="Jq515evewrRoZrL4Z5Ga-44">
          <mxGeometry relative="1" as="geometry" />
        </mxCell>
        <mxCell id="Jq515evewrRoZrL4Z5Ga-47" style="edgeStyle=orthogonalEdgeStyle;rounded=0;orthogonalLoop=1;jettySize=auto;html=1;exitX=1;exitY=1;exitDx=0;exitDy=0;entryX=0.145;entryY=0;entryDx=0;entryDy=4.35;entryPerimeter=0;" edge="1" parent="1" source="Jq515evewrRoZrL4Z5Ga-32" target="Jq515evewrRoZrL4Z5Ga-44">
          <mxGeometry relative="1" as="geometry">
            <Array as="points">
              <mxPoint x="735" y="590" />
            </Array>
          </mxGeometry>
        </mxCell>
        <mxCell id="Jq515evewrRoZrL4Z5Ga-48" value="Project" style="swimlane;fontStyle=0;childLayout=stackLayout;horizontal=1;startSize=30;horizontalStack=0;resizeParent=1;resizeParentMax=0;resizeLast=0;collapsible=1;marginBottom=0;whiteSpace=wrap;html=1;" vertex="1" parent="1">
          <mxGeometry x="782.42" y="850" width="140" height="210" as="geometry">
            <mxRectangle x="700.5" y="860" width="80" height="30" as="alternateBounds" />
          </mxGeometry>
        </mxCell>
        <mxCell id="Jq515evewrRoZrL4Z5Ga-49" value="id" style="text;strokeColor=none;fillColor=none;align=left;verticalAlign=middle;spacingLeft=4;spacingRight=4;overflow=hidden;points=[[0,0.5],[1,0.5]];portConstraint=eastwest;rotatable=0;whiteSpace=wrap;html=1;" vertex="1" parent="Jq515evewrRoZrL4Z5Ga-48">
          <mxGeometry y="30" width="140" height="30" as="geometry" />
        </mxCell>
        <mxCell id="Jq515evewrRoZrL4Z5Ga-50" value="repoUrl" style="text;strokeColor=none;fillColor=none;align=left;verticalAlign=middle;spacingLeft=4;spacingRight=4;overflow=hidden;points=[[0,0.5],[1,0.5]];portConstraint=eastwest;rotatable=0;whiteSpace=wrap;html=1;" vertex="1" parent="Jq515evewrRoZrL4Z5Ga-48">
          <mxGeometry y="60" width="140" height="30" as="geometry" />
        </mxCell>
        <mxCell id="Jq515evewrRoZrL4Z5Ga-51" value="botEnabled" style="text;strokeColor=none;fillColor=none;align=left;verticalAlign=middle;spacingLeft=4;spacingRight=4;overflow=hidden;points=[[0,0.5],[1,0.5]];portConstraint=eastwest;rotatable=0;whiteSpace=wrap;html=1;" vertex="1" parent="Jq515evewrRoZrL4Z5Ga-48">
          <mxGeometry y="90" width="140" height="30" as="geometry" />
        </mxCell>
        <mxCell id="Jq515evewrRoZrL4Z5Ga-55" value="dataSynced" style="text;strokeColor=none;fillColor=none;align=left;verticalAlign=middle;spacingLeft=4;spacingRight=4;overflow=hidden;points=[[0,0.5],[1,0.5]];portConstraint=eastwest;rotatable=0;whiteSpace=wrap;html=1;" vertex="1" parent="Jq515evewrRoZrL4Z5Ga-48">
          <mxGeometry y="120" width="140" height="30" as="geometry" />
        </mxCell>
        <mxCell id="Jq515evewrRoZrL4Z5Ga-72" value="botMeta" style="text;strokeColor=none;fillColor=none;align=left;verticalAlign=middle;spacingLeft=4;spacingRight=4;overflow=hidden;points=[[0,0.5],[1,0.5]];portConstraint=eastwest;rotatable=0;whiteSpace=wrap;html=1;" vertex="1" parent="Jq515evewrRoZrL4Z5Ga-48">
          <mxGeometry y="150" width="140" height="30" as="geometry" />
        </mxCell>
        <mxCell id="Jq515evewrRoZrL4Z5Ga-56" value="owner" style="text;strokeColor=none;fillColor=none;align=left;verticalAlign=middle;spacingLeft=4;spacingRight=4;overflow=hidden;points=[[0,0.5],[1,0.5]];portConstraint=eastwest;rotatable=0;whiteSpace=wrap;html=1;" vertex="1" parent="Jq515evewrRoZrL4Z5Ga-48">
          <mxGeometry y="180" width="140" height="30" as="geometry" />
        </mxCell>
        <mxCell id="Jq515evewrRoZrL4Z5Ga-58" value="User" style="swimlane;fontStyle=0;childLayout=stackLayout;horizontal=1;startSize=30;horizontalStack=0;resizeParent=1;resizeParentMax=0;resizeLast=0;collapsible=1;marginBottom=0;whiteSpace=wrap;html=1;" vertex="1" parent="1">
          <mxGeometry x="411.92" y="970" width="250" height="120" as="geometry" />
        </mxCell>
        <mxCell id="Jq515evewrRoZrL4Z5Ga-60" value="PK (platformType + platform UserId)" style="text;strokeColor=none;fillColor=none;align=left;verticalAlign=middle;spacingLeft=4;spacingRight=4;overflow=hidden;points=[[0,0.5],[1,0.5]];portConstraint=eastwest;rotatable=0;whiteSpace=wrap;html=1;" vertex="1" parent="Jq515evewrRoZrL4Z5Ga-58">
          <mxGeometry y="30" width="250" height="30" as="geometry" />
        </mxCell>
        <mxCell id="Jq515evewrRoZrL4Z5Ga-63" value="platformType" style="text;strokeColor=none;fillColor=none;align=left;verticalAlign=middle;spacingLeft=4;spacingRight=4;overflow=hidden;points=[[0,0.5],[1,0.5]];portConstraint=eastwest;rotatable=0;whiteSpace=wrap;html=1;" vertex="1" parent="Jq515evewrRoZrL4Z5Ga-58">
          <mxGeometry y="60" width="250" height="30" as="geometry" />
        </mxCell>
        <mxCell id="Jq515evewrRoZrL4Z5Ga-61" value="platformUserId" style="text;strokeColor=none;fillColor=none;align=left;verticalAlign=middle;spacingLeft=4;spacingRight=4;overflow=hidden;points=[[0,0.5],[1,0.5]];portConstraint=eastwest;rotatable=0;whiteSpace=wrap;html=1;" vertex="1" parent="Jq515evewrRoZrL4Z5Ga-58">
          <mxGeometry y="90" width="250" height="30" as="geometry" />
        </mxCell>
        <mxCell id="Jq515evewrRoZrL4Z5Ga-64" value="" style="edgeStyle=orthogonalEdgeStyle;rounded=0;orthogonalLoop=1;jettySize=auto;html=1;entryX=0;entryY=0.5;entryDx=0;entryDy=0;" edge="1" parent="1" source="Jq515evewrRoZrL4Z5Ga-63" target="Jq515evewrRoZrL4Z5Ga-56">
          <mxGeometry relative="1" as="geometry" />
        </mxCell>
        <mxCell id="Jq515evewrRoZrL4Z5Ga-65" value="User2ProjectAccessMap" style="swimlane;fontStyle=0;childLayout=stackLayout;horizontal=1;startSize=30;horizontalStack=0;resizeParent=1;resizeParentMax=0;resizeLast=0;collapsible=1;marginBottom=0;whiteSpace=wrap;html=1;" vertex="1" parent="1">
          <mxGeometry x="661.92" y="1140" width="140" height="120" as="geometry" />
        </mxCell>
        <mxCell id="Jq515evewrRoZrL4Z5Ga-66" value="id" style="text;strokeColor=none;fillColor=none;align=left;verticalAlign=middle;spacingLeft=4;spacingRight=4;overflow=hidden;points=[[0,0.5],[1,0.5]];portConstraint=eastwest;rotatable=0;whiteSpace=wrap;html=1;" vertex="1" parent="Jq515evewrRoZrL4Z5Ga-65">
          <mxGeometry y="30" width="140" height="30" as="geometry" />
        </mxCell>
        <mxCell id="Jq515evewrRoZrL4Z5Ga-67" value="userId" style="text;strokeColor=none;fillColor=none;align=left;verticalAlign=middle;spacingLeft=4;spacingRight=4;overflow=hidden;points=[[0,0.5],[1,0.5]];portConstraint=eastwest;rotatable=0;whiteSpace=wrap;html=1;" vertex="1" parent="Jq515evewrRoZrL4Z5Ga-65">
          <mxGeometry y="60" width="140" height="30" as="geometry" />
        </mxCell>
        <mxCell id="Jq515evewrRoZrL4Z5Ga-68" value="projectId" style="text;strokeColor=none;fillColor=none;align=left;verticalAlign=middle;spacingLeft=4;spacingRight=4;overflow=hidden;points=[[0,0.5],[1,0.5]];portConstraint=eastwest;rotatable=0;whiteSpace=wrap;html=1;" vertex="1" parent="Jq515evewrRoZrL4Z5Ga-65">
          <mxGeometry y="90" width="140" height="30" as="geometry" />
        </mxCell>
        <mxCell id="Jq515evewrRoZrL4Z5Ga-69" style="edgeStyle=orthogonalEdgeStyle;rounded=0;orthogonalLoop=1;jettySize=auto;html=1;exitX=0;exitY=0.5;exitDx=0;exitDy=0;entryX=0;entryY=0.5;entryDx=0;entryDy=0;" edge="1" parent="1" source="Jq515evewrRoZrL4Z5Ga-67" target="Jq515evewrRoZrL4Z5Ga-60">
          <mxGeometry relative="1" as="geometry" />
        </mxCell>
        <mxCell id="Jq515evewrRoZrL4Z5Ga-70" style="edgeStyle=orthogonalEdgeStyle;rounded=0;orthogonalLoop=1;jettySize=auto;html=1;exitX=1;exitY=0.5;exitDx=0;exitDy=0;entryX=1;entryY=0.5;entryDx=0;entryDy=0;" edge="1" parent="1" source="Jq515evewrRoZrL4Z5Ga-68" target="Jq515evewrRoZrL4Z5Ga-49">
          <mxGeometry relative="1" as="geometry" />
        </mxCell>
        <mxCell id="Jq515evewrRoZrL4Z5Ga-73" value="Backend" style="text;html=1;align=center;verticalAlign=middle;whiteSpace=wrap;rounded=0;" vertex="1" parent="1">
          <mxGeometry x="359.75" y="440" width="140.25" height="30" as="geometry" />
        </mxCell>
        <mxCell id="Jq515evewrRoZrL4Z5Ga-74" value="Webpage" style="rounded=0;whiteSpace=wrap;html=1;" vertex="1" parent="1">
          <mxGeometry x="20" y="618.5" width="120" height="60" as="geometry" />
        </mxCell>
        <mxCell id="Jq515evewrRoZrL4Z5Ga-75" value="Teams Bot" style="rounded=0;whiteSpace=wrap;html=1;" vertex="1" parent="1">
          <mxGeometry x="20" y="708.5" width="120" height="60" as="geometry" />
        </mxCell>
        <mxCell id="Jq515evewrRoZrL4Z5Ga-76" value="Azure Devops Extension" style="rounded=0;whiteSpace=wrap;html=1;" vertex="1" parent="1">
          <mxGeometry x="20" y="798.5" width="120" height="60" as="geometry" />
        </mxCell>
        <mxCell id="Jq515evewrRoZrL4Z5Ga-80" value="Command Line Tools" style="rounded=0;whiteSpace=wrap;html=1;" vertex="1" parent="1">
          <mxGeometry x="20" y="531.5" width="120" height="60" as="geometry" />
        </mxCell>
        <mxCell id="Jq515evewrRoZrL4Z5Ga-81" value="" style="rounded=0;whiteSpace=wrap;html=1;fillColor=none;dashed=1;" vertex="1" parent="1">
          <mxGeometry x="-40" y="440" width="240" height="520" as="geometry" />
        </mxCell>
        <mxCell id="Jq515evewrRoZrL4Z5Ga-82" value="User Interface" style="text;html=1;align=center;verticalAlign=middle;whiteSpace=wrap;rounded=0;" vertex="1" parent="1">
          <mxGeometry x="-40" y="440" width="90" height="30" as="geometry" />
        </mxCell>
        <mxCell id="Jq515evewrRoZrL4Z5Ga-85" value="" style="endArrow=classic;startArrow=classic;html=1;rounded=0;entryX=0;entryY=0.5;entryDx=0;entryDy=0;exitX=1.004;exitY=0.231;exitDx=0;exitDy=0;exitPerimeter=0;" edge="1" parent="1" source="Jq515evewrRoZrL4Z5Ga-81" target="Jq515evewrRoZrL4Z5Ga-31">
          <mxGeometry width="50" height="50" relative="1" as="geometry">
            <mxPoint x="-30" y="670" as="sourcePoint" />
            <mxPoint x="20" y="620" as="targetPoint" />
          </mxGeometry>
        </mxCell>
        <mxCell id="Jq515evewrRoZrL4Z5Ga-87" value="" style="endArrow=none;dashed=1;html=1;dashPattern=1 3;strokeWidth=2;rounded=0;entryX=0.5;entryY=1;entryDx=0;entryDy=0;entryPerimeter=0;startArrow=classic;startFill=1;" edge="1" parent="1" target="Jq515evewrRoZrL4Z5Ga-44">
          <mxGeometry width="50" height="50" relative="1" as="geometry">
            <mxPoint x="770" y="830" as="sourcePoint" />
            <mxPoint x="620" y="770" as="targetPoint" />
          </mxGeometry>
        </mxCell>
        <mxCell id="Jq515evewrRoZrL4Z5Ga-89" value="" style="rounded=0;whiteSpace=wrap;html=1;fillColor=none;dashed=1;" vertex="1" parent="1">
          <mxGeometry x="360" y="830" width="630" height="450" as="geometry" />
        </mxCell>
      </root>
    </mxGraphModel>
  </diagram>
</mxfile>
